<svg xmlns="http://www.w3.org/2000/svg" version="1.1" xmlnsXlink="http://www.w3.org/1999/xlink" xmlnsSvgjs="http://svgjs.com/svgjs" width="1440" height="560" preserveAspectRatio="none" viewBox="0 0 1440 560"><g mask="url(&quot;#SvgjsMask1000&quot;)" fill="none"><rect width="1440" height="560" x="0" y="0" fill="#1e3266"></rect><path d="M1488 560L0 560 L0 372.76Q8.15 308.91, 72 317.07Q121.37 246.44, 192 295.8Q245.61 277.41, 264 331.02Q317 264.02, 384 317.02Q433.86 294.88, 456 344.73Q508.6 325.33, 528 377.93Q581.34 311.26, 648 364.6Q643.26 287.86, 720 283.12Q786.56 277.68, 792 344.24Q837.29 269.53, 912 314.83Q954.49 285.31, 984 327.8Q1027.87 299.67, 1056 343.54Q1086.96 254.5, 1176 285.46Q1246.74 236.2, 1296 306.95Q1375.43 266.38, 1416 345.82Q1464.58 322.39, 1488 370.97z" fill="#182f5d"></path><path d="M1488 560L0 560 L0 392.98Q68.22 341.2, 120 409.42Q142.2 359.63, 192 381.83Q246.8 316.63, 312 371.43Q365.77 305.2, 432 358.97Q535.98 342.95, 552 446.92Q602.86 377.77, 672 428.63Q705.63 342.25, 792 375.88Q863.47 327.35, 912 398.81Q989.57 356.38, 1032 433.95Q1033.03 362.98, 1104 364Q1159.33 299.33, 1224 354.66Q1280.41 339.08, 1296 395.49Q1346.38 325.88, 1416 376.26Q1482.26 370.52, 1488 436.78z" fill="#25467d"></path><path d="M1488 560L0 560 L0 513.3Q7.45 448.75, 72 456.19Q93.25 405.44, 144 426.69Q181.99 392.68, 216 430.67Q267.02 409.69, 288 460.71Q339.06 439.77, 360 490.84Q391.76 402.6, 480 434.36Q560.22 394.58, 600 474.79Q649.59 452.38, 672 501.97Q702.41 412.38, 792 442.79Q876.44 407.23, 912 491.67Q931.92 439.59, 984 459.51Q1025.15 428.66, 1056 469.81Q1126.29 420.1, 1176 490.39Q1222.12 464.5, 1248 510.62Q1268.2 410.82, 1368 431.03Q1434.06 377.08, 1488 443.14z" fill="#356cb1"></path><path d="M1488 560L0 560 L0 547.64Q45.53 473.17, 120 518.71Q187.24 465.95, 240 533.19Q310.4 483.6, 360 554Q406.9 528.9, 432 575.81Q443.56 515.37, 504 526.92Q550.18 453.1, 624 499.28Q679.13 482.4, 696 537.53Q719.26 488.79, 768 512.05Q846.16 470.21, 888 548.38Q938.96 527.34, 960 578.3Q961.68 507.98, 1032 509.66Q1059.22 464.88, 1104 492.11Q1185.18 453.29, 1224 534.46Q1273.76 464.23, 1344 513.99Q1408.09 506.08, 1416 570.16Q1445.5 527.66, 1488 557.17z" fill="white"></path></g><defs><mask id="SvgjsMask1000"><rect width="1440" height="560" fill="#ffffff"></rect></mask></defs></svg>